<?xml version="1.0" standalone="no"?>
<!DOCTYPE svg PUBLIC "-//W3C//DTD SVG 20010904//EN"
 "http://www.w3.org/TR/2001/REC-SVG-20010904/DTD/svg10.dtd">
<svg version="1.0" xmlns="http://www.w3.org/2000/svg"
 width="280.000000pt" height="280.000000pt" viewBox="0 0 280.000000 280.000000"
 preserveAspectRatio="xMidYMid meet">
<metadata>
Created by potrace 1.14, written by Peter Selinger 2001-2017
</metadata>
<g transform="translate(0.000000,280.000000) scale(0.100000,-0.100000)"
fill="#000000" stroke="none">
<path d="M700 2710 l0 -90 -85 0 -85 0 0 -175 0 -175 -90 0 -90 0 0 -85 0 -85
-85 0 -85 0 0 -175 0 -175 -90 0 -90 0 0 -350 0 -350 90 0 90 0 0 -90 0 -90
85 0 85 0 0 -85 0 -85 -85 0 -85 0 0 -90 0 -90 -90 0 -90 0 0 -175 0 -175 90
0 90 0 0 -85 0 -85 435 0 435 0 0 85 0 85 350 0 350 0 0 -85 0 -85 440 0 440
0 0 85 0 85 85 0 85 0 0 175 0 175 -85 0 -85 0 0 90 0 90 -90 0 -90 0 0 85 0
85 90 0 90 0 0 90 0 90 85 0 85 0 0 350 0 350 -85 0 -85 0 0 175 0 175 -90 0
-90 0 0 85 0 85 -85 0 -85 0 0 175 0 175 -90 0 -90 0 0 90 0 90 -700 0 -700 0
0 -90z m1230 -615 l0 -175 85 0 85 0 0 -85 0 -85 90 0 90 0 0 -350 0 -350 -90
0 -90 0 0 -90 0 -90 -175 0 -175 0 0 -85 0 -85 -435 0 -435 0 0 85 0 85 -90 0
-90 0 0 350 0 350 90 0 90 0 0 265 0 265 85 0 85 0 0 85 0 85 440 0 440 0 0
-175z m-1400 -1485 l0 -90 175 0 175 0 0 -85 0 -85 -350 0 -350 0 0 85 0 85
85 0 85 0 0 90 0 90 90 0 90 0 0 -90z m1920 0 l0 -90 90 0 90 0 0 -85 0 -85
-350 0 -350 0 0 85 0 85 175 0 175 0 0 90 0 90 85 0 85 0 0 -90z"/>
<path d="M1050 1660 l0 -260 90 0 90 0 0 260 0 260 -90 0 -90 0 0 -260z"/>
<path d="M1750 1660 l0 -260 90 0 90 0 0 260 0 260 -90 0 -90 0 0 -260z"/>
</g>
</svg>
